<?xml version="1.0" encoding="utf-8"?>
<!DOCTYPE svg PUBLIC "-//W3C//DTD SVG 1.0//EN" "http://www.w3.org/TR/2001/REC-SVG-20010904/DTD/svg10.dtd">
<svg version="1.0" xmlns="http://www.w3.org/2000/svg" width="1076px" height="1092px" viewBox="0 0 1076 1092" preserveAspectRatio="xMidYMid meet">
 <g fill="#a98e3c">
  <path d="M698 1089.8 c-27 -1.2 -41.3 -3 -62 -7.9 -8.4 -2 -15.7 -3.5 -21.5 -4.5 -1.6 -0.3 -3.4 -1 -4 -1.5 -0.5 -0.5 -1.7 -0.9 -2.6 -0.9 -0.9 0 -3 -0.7 -4.5 -1.5 -1.6 -0.8 -3.9 -1.5 -5.1 -1.5 -1.2 0 -2.5 -0.4 -2.8 -1 -0.3 -0.5 -1.6 -1 -2.8 -1 -1.2 0 -3.1 -0.7 -4.1 -1.5 -1.1 -0.8 -3 -1.5 -4.2 -1.5 -1.3 0 -2.5 -0.4 -2.8 -0.9 -0.3 -0.5 -1.7 -1.1 -3 -1.5 -1.3 -0.3 -6.7 -2.6 -12 -5.1 -5.3 -2.5 -9.9 -4.5 -10.1 -4.5 -0.9 0 -22 -10.3 -22.5 -11 -0.3 -0.4 -1.2 -1 -2 -1.4 -2.1 -1 -5 -2.7 -8.5 -5.1 -1.7 -1.2 -4.3 -2.7 -6 -3.5 -1.6 -0.8 -4.9 -2.9 -7.2 -4.8 -2.4 -1.8 -4.3 -3 -4.3 -2.6 0 0.3 -2.4 -1.4 -5.4 -4 -3 -2.5 -5.9 -4.6 -6.5 -4.6 -0.6 0 -1.5 -0.9 -2.1 -2 -0.6 -1.1 -1.6 -2 -2.3 -2 -1.1 0 -17.5 -13.4 -23.7 -19.4 -1.4 -1.3 -3 -2.5 -3.7 -2.7 -0.7 -0.2 -5.6 -5.6 -11 -12 -5.4 -6.3 -10.6 -12.4 -11.6 -13.5 -1 -1 -2.8 -3.2 -4 -4.7 -2.8 -3.5 -11.9 -5.4 -15.3 -3.2 -2.8 1.8 -7.6 2.5 -9 1.3 -0.9 -0.6 -0.7 -1.9 0.7 -4.8 2 -4.1 3.3 -5.3 6.1 -5.7 2.5 -0.4 20.6 6.3 25 9.2 2.1 1.4 4 2.5 4.2 2.5 0.8 0 18.5 10.8 26 15.9 13.4 9 45.3 28 54.6 32.3 3 1.5 11.8 5.6 19.5 9.3 34.9 16.6 68.8 25.2 110.5 28 4.7 0.3 11.4 1 15 1.5 8.7 1.3 52.1 1.3 59.6 0 12.6 -2.3 31.3 -7.3 41.6 -11.4 3.5 -1.3 14 -5 23.3 -8.1 20.1 -6.8 28.7 -10.7 37.5 -17.2 10.3 -7.6 29.2 -23.6 33 -28 5.1 -5.8 19.1 -24 22.8 -29.5 1.8 -2.7 4.5 -6.7 6.1 -9 1.6 -2.4 3.5 -5.9 4.3 -7.8 0.8 -1.9 2.2 -4.1 3.1 -4.9 1 -0.7 1.7 -1.7 1.7 -2.2 0 -0.5 2.6 -4.8 5.7 -9.6 3.2 -4.8 10 -17.3 15.1 -27.8 5.2 -10.4 10.1 -19.4 10.8 -19.8 0.8 -0.4 1.4 -1.5 1.4 -2.2 0 -0.8 0.5 -1.5 1 -1.5 0.6 0 1 -1.1 1 -2.4 0 -1.4 0.5 -2.8 1 -3.1 0.6 -0.3 1 -1.5 1 -2.6 0 -1 0.5 -1.9 1 -1.9 0.6 0 1 -0.9 1 -2.1 0 -1.2 1.5 -6.7 3.4 -12.3 1.9 -5.5 4.6 -15.7 6.1 -22.6 1.4 -6.9 3.1 -13.3 3.6 -14.2 0.5 -1 0.9 -2.5 0.9 -3.3 0 -0.8 0.5 -1.5 1 -1.5 0.6 0 1 -1.1 1 -2.5 0 -1.7 1.6 -4.1 4.7 -7.3 l4.7 -4.7 18.9 -0.6 c18.8 -0.7 18.8 -0.7 25.3 -4 3.6 -1.8 7.7 -4.6 9 -6.2 3.3 -3.9 6.8 -11.1 8.2 -16.7 2.7 -11.1 3.2 -14.3 3.8 -24.6 l0.7 -11 -3.4 -6.9 c-3.4 -6.9 -5.9 -9.7 -23.8 -26.7 -5 -4.8 -9.1 -9.2 -9.1 -9.7 0 -0.6 1.2 -2.2 2.7 -3.7 2.7 -2.7 2.7 -2.7 13.2 -2 5.8 0.3 10.7 1.1 10.9 1.6 0.2 0.6 1.4 1 2.6 1 1.2 0 3.2 0.9 4.4 2 1.2 1.1 2.8 2 3.7 2 0.8 0 1.5 0.5 1.5 1 0 0.6 0.7 1 1.5 1 1.7 0 20.5 18.4 20.5 20 0 0.6 0.9 2 2 3.2 1.1 1.2 2 2.8 2 3.5 0 0.7 0.5 1.3 1 1.3 0.6 0 1 0.9 1 2 0 1.1 0.4 2 0.8 2 0.8 0 3.2 8.8 5.3 19.5 1.5 7.5 0.5 29.2 -1.6 36.1 -0.8 2.7 -1.5 5.7 -1.5 6.7 0 3.2 -9.5 22.1 -14.3 28.4 -5.6 7.3 -13.3 14.4 -19.6 18.1 -2.5 1.4 -6 3.6 -7.7 4.9 -1.7 1.3 -4.1 2.3 -5.2 2.3 -1.2 0 -2.2 0.4 -2.2 0.8 0 0.5 -2.2 1.5 -5 2.2 -2.7 0.7 -5 1.7 -5 2.2 0 0.4 -1.1 0.8 -2.5 0.8 -4.9 0 -7.9 4.5 -9.9 15 -2.5 13.7 -3.9 19.4 -4.8 20.5 -0.4 0.5 -0.8 2.2 -0.8 3.7 0 1.5 -0.4 2.8 -1 2.8 -0.5 0 -1 1.5 -1 3.2 0 3.5 -4.2 15.4 -9.5 27.3 -0.7 1.7 -2.5 5.7 -4 9 -9.6 21.7 -23.4 44.6 -33.3 55 -3.4 3.7 -6.2 7.3 -6.2 8.1 0 0.7 -0.4 1.4 -1 1.4 -0.5 0 -3.7 3.3 -7.1 7.3 -8.3 9.7 -16.8 18.5 -21.7 22.6 -2.3 1.8 -5.2 4.3 -6.5 5.4 -1.3 1.2 -4.1 3.6 -6.2 5.2 -2 1.7 -4.5 3.7 -5.4 4.6 -4.8 4.6 -25.3 18.9 -27.1 18.9 -0.7 0 -2.5 0.9 -4.1 2.1 -1.6 1.1 -3.6 2.2 -4.4 2.3 -0.8 0.1 -2.2 0.9 -3.2 1.8 -2.6 2.3 -10.3 6.4 -13.5 7.2 -1.6 0.3 -2.8 1.1 -2.8 1.7 0 0.6 -0.8 0.8 -1.9 0.4 -1 -0.3 -2.4 0.1 -3.1 1 -0.7 0.8 -1.9 1.5 -2.6 1.5 -0.8 0 -2.2 0.4 -3.2 0.9 -2.6 1.4 -5.5 2.4 -7.4 2.6 -1 0.1 -2.3 0.7 -3 1.2 -0.7 0.6 -4 1.8 -7.3 2.8 -3.3 1 -6.5 2.2 -7.2 2.7 -0.6 0.5 -2.6 1 -4.3 1 -1.7 0.1 -3.3 0.5 -3.6 1 -0.3 0.4 -2 0.8 -3.8 0.8 -1.7 0 -3.6 0.4 -4.2 0.8 -1 0.9 -8.9 3 -13.9 3.7 -1.6 0.2 -5.5 0.8 -8.5 1.4 -10.7 2 -17.4 2.7 -34.5 3.5 -4.9 0.3 -9 0.5 -9 0.6 0 0.5 -4.9 0.5 -19.5 -0.2z"/>
  <path d="M132.9 984.6 c-0.2 -0.2 -4.6 -0.9 -9.6 -1.5 -11.5 -1.4 -36.6 -9.1 -45.3 -13.9 -3.6 -1.9 -11 -7.4 -16.4 -12.1 -13.2 -11.4 -32.6 -30.8 -32.6 -32.6 0 -0.8 -0.4 -1.5 -0.8 -1.5 -0.5 0 -1.5 -1.2 -2.3 -2.7 -0.8 -1.6 -2.2 -3.7 -3.1 -4.7 -1 -1.1 -1.8 -2.8 -1.8 -3.8 0 -1 -0.9 -2.8 -2 -4 -1.1 -1.2 -2 -3.2 -2 -4.5 0 -1.3 -0.4 -2.3 -1 -2.3 -0.5 0 -1 -0.9 -1 -2 0 -1.1 -0.4 -2 -1 -2 -0.5 0 -1 -0.9 -1 -1.9 0 -1.1 -0.5 -2.3 -1 -2.6 -0.6 -0.3 -1 -1.5 -1 -2.6 0 -1 -0.4 -2.7 -0.9 -3.7 -1.3 -2.4 -2.7 -8.1 -5.1 -19.7 -1.9 -9.1 -2.1 -15.3 -2.8 -68.5 -0.5 -32.2 -0.4 -59.8 0 -61.5 0.4 -1.6 0.8 -9.9 0.8 -18.2 0 -9.5 0.4 -15.3 1 -15.3 0.6 0 1 -3 1 -7 0 -4 0.4 -7 1 -7 0.6 0 1 -1.3 1 -3 0 -1.6 0.5 -3 1 -3 0.6 0 1 -1.3 1 -3 0 -1.6 0.5 -3 1 -3 0.6 0 1 -0.9 1 -2 0 -1.1 0.5 -2 1 -2 0.6 0 1 -1.1 1 -2.4 0 -1.4 0.4 -2.8 1 -3.1 0.5 -0.3 1 -1.4 1 -2.3 0 -1 0.9 -2.4 2 -3.2 1.1 -0.8 2 -2.1 2 -3 0 -0.9 0.9 -2.2 2 -3 1.1 -0.8 2 -2 2 -2.7 0 -1.6 22.6 -24.3 24.2 -24.3 0.8 0 2 -0.9 2.8 -2 0.8 -1.1 2.2 -2 3.2 -2 1 0 1.8 -0.4 1.8 -1 0 -0.5 0.9 -1 2 -1 1.1 0 2 -0.4 2 -1 0 -0.5 0.9 -1 2 -1 1.1 0 2 -0.4 2 -0.8 0 -0.5 2.4 -1.4 5.3 -2.1 2.8 -0.7 7.9 -2.2 11.1 -3.2 4.8 -1.5 9 -1.9 22.1 -1.9 12.2 0 16.9 -0.4 19.1 -1.5 3.3 -1.6 20.4 -19 20.4 -20.6 0 -0.6 1.3 -2.4 3 -3.9 1.7 -1.5 3 -3.4 3 -4.2 0 -0.7 0.9 -2 2 -2.8 1.1 -0.8 2 -2 2 -2.6 0 -0.6 1.3 -2.5 3 -4.2 1.6 -1.8 3 -3.6 3 -4 0 -0.5 1.4 -2.3 3 -4 1.7 -1.8 3 -3.6 3 -4 0 -0.5 0.8 -1.7 1.8 -2.8 0.9 -1 2.8 -3.9 4.1 -6.4 1.4 -2.5 2.7 -4.7 3 -5 0.4 -0.3 2.1 -3.3 3.9 -6.6 3.2 -6.2 4.5 -15.4 2.2 -15.4 -0.5 0 -1 -0.9 -1 -1.9 0 -1.1 -0.5 -2.3 -1 -2.6 -0.6 -0.3 -1 -1.7 -1 -3.1 0 -1.3 -0.4 -2.4 -1 -2.4 -0.5 0 -1 -0.9 -1 -2 0 -1.1 -0.4 -2 -1 -2 -0.5 0 -1 -0.9 -1 -2 0 -1.1 -0.4 -2 -1 -2 -0.5 0 -1 -0.9 -1 -2 0 -1.1 -0.4 -2 -1 -2 -0.5 0 -1 -0.9 -1 -2 0 -1.1 -0.4 -2 -1 -2 -0.5 0 -1 -0.9 -1 -2 0 -1.1 -0.4 -2 -1 -2 -0.5 0 -1 -0.7 -1 -1.6 0 -0.9 -1.3 -2.9 -3 -4.4 -1.6 -1.5 -3 -3.3 -3 -4 0 -0.7 -1.3 -2.5 -3 -4 -1.6 -1.5 -3 -3.3 -3 -4 0 -0.7 -1.3 -2.5 -3 -4 -1.6 -1.5 -3 -3.3 -3 -4 0 -0.7 -1.3 -2.5 -3 -4 -1.6 -1.5 -3 -3.5 -3 -4.4 0 -0.9 -0.4 -1.6 -1 -1.6 -0.5 0 -1 -1.3 -1 -3 0 -1.6 -0.4 -3 -0.9 -3 -0.5 0 -1.1 -1.5 -1.4 -3.2 -2.2 -12.7 -2.7 -16.9 -2.8 -24.1 -0.2 -9.3 0.9 -19.5 2.2 -20.3 0.5 -0.3 0.9 -1.8 0.9 -3.5 0 -1.6 0.5 -2.9 1 -2.9 0.6 0 1 -0.9 1 -2 0 -1.1 0.5 -2 1 -2 0.6 0 1 -0.9 1 -2 0 -1.1 0.5 -2 1 -2 0.6 0 1 -0.8 1 -1.8 0 -1 0.9 -2.4 2 -3.2 1.1 -0.8 2 -2 2 -2.8 0 -1.5 16.7 -18.2 18.2 -18.2 0.5 0 1.6 -0.7 2.5 -1.5 0.8 -0.9 2.8 -1.9 4.4 -2.2 1.6 -0.3 2.9 -0.9 2.9 -1.4 0 -0.5 1.3 -0.9 2.8 -0.9 1.5 0 3.4 -0.6 4 -1.2 1 -1 8.8 -1.3 31.5 -1.3 25.1 0 31.6 0.3 38.7 1.8 9.7 2 33.5 8.1 39.7 10.2 7.3 2.5 22.8 8.7 23.3 9.4 0.3 0.3 1.5 1.2 2.8 1.9 14.5 8.1 14.8 8.1 38.2 -5 10.2 -5.7 20.5 -11.1 23 -12.2 2.5 -1 6.4 -2.7 8.7 -3.7 2.4 -1.1 4.6 -1.9 5.1 -1.9 0.5 0 3 -1.1 5.8 -2.4 2.7 -1.3 6 -2.7 7.4 -3.1 1.4 -0.4 3 -1.1 3.5 -1.5 3.7 -2.7 55.4 -16.9 71.5 -19.6 4.7 -0.8 10.4 -1.9 12.8 -2.4 2.3 -0.6 6.7 -1 9.7 -1 3 0 5.5 -0.4 5.5 -0.9 0 -1.7 11 -2.3 48 -2.8 34.9 -0.4 60.8 0.7 63.5 2.7 0.6 0.4 3.3 1 6 1.3 11.9 1.3 19.9 2.9 34.5 6.8 8.5 2.2 17 4.3 18.8 4.6 1.7 0.3 3.2 0.9 3.2 1.4 0 0.5 0.9 0.9 2 0.9 2.8 0 10 2.3 10 3.2 0 0.5 1.5 0.8 3.4 0.8 1.9 0 3.8 0.4 4.1 1 0.3 0.5 1.9 1 3.6 1 1.6 0 2.9 0.5 2.9 1 0 0.6 0.9 1 2 1 1.1 0 2 0.5 2 1 0 0.6 1.4 1 3 1 1.7 0 3 0.5 3 1 0 0.6 0.9 1 2 1 1.1 0 2 0.5 2 1 0 0.6 0.9 1 2 1 1.1 0 3.5 0.9 5.5 2 2 1.1 4 2 4.5 2 0.5 0 5.6 2.3 11.2 5 5.6 2.8 10.8 5 11.5 5 0.7 0 1.3 0.5 1.3 1 0 0.6 0.9 1 2 1 1.1 0 2 0.5 2 1 0 0.6 0.9 1 2 1 1.1 0 2 0.5 2 1 0 0.6 0.6 1 1.3 1 0.7 0 2.3 0.9 3.5 2 1.2 1.1 2.7 2 3.4 2 0.8 0 2 0.9 2.8 2 0.8 1.1 2.1 2 3 2 0.9 0 2.2 0.9 3 2 0.8 1.1 2.2 2 3.2 2 1 0 1.8 0.5 1.8 1 0 0.6 0.8 1 1.8 1 1 0 2.4 0.9 3.2 2 0.8 1.1 2.1 2 3 2 0.9 0 2.2 0.9 3 2 0.8 1.1 2.1 2 2.8 2 0.8 0 2.7 1.4 4.2 3 1.5 1.7 3.5 3 4.4 3 0.9 0 1.6 0.5 1.6 1 0 0.6 0.6 1 1.4 1 0.7 0 2.7 1.3 4.4 3 1.8 1.7 3.6 3 4.1 3 0.5 0 4.1 3.1 8 7 3.9 3.8 7.6 7 8.1 7 1.3 0 38 36.7 38 38 0 0.6 3.2 4.2 7 8.1 3.9 3.9 7 7.6 7 8.3 0 0.6 0.9 1.8 2 2.6 1.1 0.8 2 2.1 2 2.8 0 0.8 1.4 2.7 3 4.2 1.7 1.5 3 3.4 3 4.2 0 0.7 0.9 2 2 2.8 1.1 0.8 2 2.1 2 2.8 0 0.8 1.3 2.7 3 4.2 1.6 1.5 3 3.5 3 4.4 0 0.9 0.5 1.6 1 1.6 0.6 0 1 0.8 1 1.8 0 1 0.9 2.4 2 3.2 1.1 0.8 2 2 2 2.8 0 0.7 0.9 2.2 2 3.4 1.1 1.2 2 2.8 2 3.5 0 0.7 0.5 1.3 1 1.3 0.6 0 1 0.9 1 2 0 1.1 0.5 2 1 2 0.6 0 1 0.8 1 1.8 0 1 0.9 2.4 2 3.2 1.1 0.8 2 2.2 2 3.2 0 1 0.5 1.8 1 1.8 0.6 0 1 0.9 1 2 0 1.1 0.5 2 1 2 0.6 0 1 0.9 1 2 0 1.1 0.5 2 1 2 0.6 0 1 0.9 1 2 0 1.1 0.5 2 1 2 0.6 0 1 0.9 1 2 0 1.1 0.5 2 1 2 0.6 0 1 0.9 1 2 0 1.1 0.5 2 1 2 0.6 0 1 1.4 1 3 0 1.7 0.5 3 1 3 0.6 0 1 1.4 1 3 0 1.7 0.5 3 1 3 0.6 0 1 0.7 1 1.5 0 0.8 0.5 2.3 1 3.3 1.7 2.8 9 25 9 27.2 0 1.1 0.5 2 1 2 0.6 0 1 1.8 1 4 0 2.2 0.4 4 0.9 4 0.5 0 1.1 1.5 1.4 3.3 0.4 1.7 1.1 5.7 1.7 8.7 0.6 3 1.4 7.3 1.7 9.5 0.3 2.2 0.9 4.5 1.3 5 1.1 1.4 3 28.9 3 44.1 l0 12.5 4.5 4.4 c3.3 3.4 5.2 4.5 7.5 4.5 4.9 0 10 3.3 10 6.4 0 0.9 -0.8 1.6 -1.8 1.6 -1 0 -2.4 0.9 -3.2 2 -0.9 1.3 -2.6 2 -4.6 2 -2.5 0 -4.5 -1.3 -9.8 -6.4 -3.6 -3.6 -6.6 -7.2 -6.6 -8 0 -0.9 -0.4 -1.6 -1 -1.6 -0.5 0 -1 -0.7 -1 -1.5 0 -0.9 -0.9 -2.5 -2 -3.7 -1.1 -1.2 -2 -3.2 -2 -4.5 0 -1.3 -0.4 -2.3 -1 -2.3 -0.5 0 -1 -0.9 -1 -2 0 -1.1 -0.4 -2 -1 -2 -0.5 0 -1 -0.8 -1 -1.8 0 -1 -0.4 -2.2 -0.8 -2.7 -0.5 -0.6 -2.3 -4.8 -4.1 -9.5 -1.8 -4.7 -3.7 -9.3 -4.2 -10.2 -0.5 -1 -0.9 -2.7 -0.9 -3.7 0 -1.1 -0.4 -2.3 -1 -2.6 -0.5 -0.3 -1 -1.7 -1 -3.1 0 -1.3 -0.4 -2.4 -1 -2.4 -0.5 0 -1 -1.3 -1 -3 0 -1.6 -0.4 -3 -1 -3 -0.5 0 -1 -0.9 -1 -2 0 -1.1 -0.4 -2 -1 -2 -0.5 0 -1 -0.9 -1 -1.9 0 -1.1 -0.4 -2.3 -1 -2.6 -0.5 -0.3 -1 -1.4 -1 -2.4 0 -0.9 -0.9 -3.6 -2 -5.9 -1.1 -2.2 -2 -4.8 -2 -5.7 0 -0.8 -0.4 -1.5 -1 -1.5 -0.5 0 -1 -0.6 -1 -1.3 0 -0.7 -0.9 -3.2 -2 -5.5 -1.1 -2.2 -2 -4.8 -2 -5.7 0 -0.8 -0.4 -1.5 -1 -1.5 -0.5 0 -1 -0.6 -1 -1.3 0 -1.7 -12.3 -26.8 -16.2 -33.2 -1.7 -2.7 -4.6 -7.3 -6.5 -10.2 -1.8 -2.8 -3.3 -5.6 -3.3 -6.2 0 -0.6 -0.4 -1.1 -0.8 -1.1 -0.5 0 -1.5 -1.2 -2.3 -2.7 -0.8 -1.6 -2.6 -4.7 -4.1 -6.9 -1.6 -2.3 -2.8 -4.6 -2.8 -5.2 0 -0.6 -0.4 -1.2 -0.9 -1.4 -0.4 -0.1 -3.6 -4.1 -7.1 -8.8 -5.8 -7.8 -50 -53 -51.9 -53 -0.4 0 -2.2 -1.4 -3.9 -3 -1.8 -1.7 -3.6 -3 -4.1 -3 -0.5 0 -2.7 -1.8 -5 -4 -2.2 -2.2 -4.6 -4 -5.2 -4 -0.6 0 -2.4 -1.3 -3.9 -3 -1.5 -1.6 -3.5 -3 -4.4 -3 -0.9 0 -1.6 -0.4 -1.6 -1 0 -0.5 -0.6 -1 -1.3 -1 -0.7 0 -2.3 -0.9 -3.5 -2 -1.2 -1.1 -2.8 -2 -3.7 -2 -0.8 0 -1.5 -0.4 -1.5 -1 0 -0.5 -0.6 -1 -1.3 -1 -0.7 0 -2.3 -0.9 -3.5 -2 -1.2 -1.1 -2.5 -2 -3 -2 -0.4 0 -1.7 -0.8 -2.8 -1.8 -1.8 -1.6 -7 -4.6 -17.9 -10.1 -2.7 -1.4 -5.1 -2.9 -5.3 -3.3 -0.2 -0.5 -1.2 -0.8 -2.3 -0.8 -1 0 -1.9 -0.4 -1.9 -1 0 -0.5 -0.9 -1 -2 -1 -1.1 0 -2 -0.4 -2 -1 0 -0.5 -0.9 -1 -2 -1 -1.1 0 -3.5 -0.9 -5.5 -2 -2 -1.1 -4.2 -2 -5 -2 -0.8 0 -1.5 -0.4 -1.5 -1 0 -0.5 -0.9 -1 -1.9 -1 -1.1 0 -3.6 -0.9 -5.8 -1.9 -3.7 -1.9 -10.1 -4.3 -29.3 -11.4 -5.2 -1.9 -16.9 -5.1 -26 -7.1 -9.1 -2 -19.6 -4.5 -23.5 -5.6 -3.8 -1 -14 -2.6 -22.5 -3.5 -20.3 -2.2 -82.4 -1.7 -102.2 0.9 -20.3 2.6 -39.2 6.4 -54.3 10.8 -7.7 2.2 -15.9 4.6 -18.2 5.2 -2.4 0.6 -4.3 1.4 -4.3 1.8 0 0.5 -1.3 0.8 -3 0.8 -1.6 0 -3 0.5 -3 1 0 0.6 -1.3 1 -3 1 -1.6 0 -3 0.4 -3 0.8 0 0.4 -2.1 1.4 -4.7 2.2 -2.7 0.7 -7.2 2.6 -10.1 4.2 -3 1.5 -6.3 2.8 -7.3 2.8 -1 0 -1.9 0.5 -1.9 1 0 0.6 -0.9 1 -2 1 -1.1 0 -2 0.5 -2 1 0 0.6 -0.9 1 -2 1 -1.1 0 -2 0.5 -2 1 0 0.6 -0.9 1 -2 1 -1.1 0 -2 0.5 -2 1 0 0.6 -0.6 1 -1.3 1 -1.5 0 -12.5 5.5 -18.2 9.1 -2.2 1.4 -5.5 3.2 -7.2 4 -1.8 0.8 -3.3 1.7 -3.3 2.1 0 0.5 -0.9 0.8 -2 0.8 -1.1 0 -2 0.5 -2 1 0 0.6 -0.7 1 -1.5 1 -0.9 0 -2.5 0.9 -3.7 2 -1.2 1.1 -2.8 2 -3.5 2 -0.7 0 -1.3 0.5 -1.3 1 0 0.6 -0.9 1 -1.9 1 -1.1 0 -2.1 0.4 -2.3 1 -0.4 1.3 -14.4 3.3 -18.9 2.7 -2.1 -0.3 -5.2 -1.2 -7 -2.1 -1.8 -0.9 -3.8 -1.6 -4.6 -1.6 -0.7 0 -1.3 -0.4 -1.3 -1 0 -0.5 -0.9 -1 -2 -1 -1.1 0 -2 -0.4 -2 -1 0 -0.5 -0.5 -1 -1 -1 -0.6 0 -4.5 -2.2 -8.8 -4.8 -9.1 -5.7 -24.3 -12.5 -32.7 -14.5 -17.3 -4.3 -31.2 -5.9 -47.3 -5.5 -17.2 0.5 -20.8 1.4 -21.8 5.2 -0.5 2.1 0.1 3.3 3.5 6.5 2.3 2.2 4.1 4.6 4.1 5.3 0 0.7 0.9 2 2 2.8 1.1 0.8 2 2.1 2 2.8 0 0.8 1.4 2.7 3 4.2 1.7 1.5 3 3.5 3 4.4 0 0.9 0.5 1.6 1 1.6 0.6 0 1 0.9 1 2 0 1.1 0.5 2 1 2 0.6 0 1 0.8 1 1.8 0 1 0.9 2.4 2 3.2 1.1 0.8 2 2.2 2 3.2 0 1 0.5 1.8 1 1.8 0.6 0 1 0.9 1 2 0 1.1 0.5 2 1 2 0.6 0 1 0.9 1 2 0 1.1 0.5 2 1 2 0.6 0 1 1.3 1 2.9 0 1.6 0.4 3.1 0.8 3.3 0.4 0.2 1.5 2.6 2.5 5.3 0.9 2.8 3.2 9.4 5.2 14.8 1.9 5.5 3.5 11.2 3.5 12.8 0 1.6 0.4 2.9 0.9 2.9 1.4 0 3.4 15.6 2.8 21.9 -0.5 6.5 -3.7 18.1 -4.9 18.1 -0.4 0 -0.8 0.9 -0.8 2 0 1.1 -0.4 2 -1 2 -0.5 0 -1 0.9 -1 2 0 1.1 -0.4 2 -0.9 2 -0.5 0 -1.1 0.8 -1.4 1.8 -0.6 2.1 -31.6 47.6 -32.8 48 -0.5 0.2 -0.9 0.9 -0.9 1.7 0 0.7 -1.8 3.1 -4 5.4 -2.2 2.2 -4 4.5 -4 5 0 0.4 -1.2 2.1 -2.7 3.7 -1.6 1.7 -4.9 5.4 -7.4 8.4 -2.6 3 -11.4 12.3 -19.5 20.6 -12.8 12.9 -15.5 15.2 -19.4 16.2 -9 2.4 -17.9 3.2 -35.2 3.2 -11.2 0 -17.8 0.4 -17.8 1 0 0.6 -2 1 -4.5 1 -4.3 0 -4.9 0.4 -11.8 7.3 -6.4 6.4 -7.4 7.9 -8.4 12.7 -1.1 5.1 -3.5 65.5 -4.9 125.7 -0.4 19.5 -0.3 27.9 0.7 33.2 0.7 3.9 1.7 7.1 2.1 7.1 0.4 0 0.8 1.4 0.8 3 0 1.7 0.4 3 0.8 3 0.5 0 1.5 1.2 2.3 2.8 0.8 1.5 2.2 3.4 3.1 4.3 1 0.9 1.8 2.2 1.8 2.9 0 0.6 1.4 2.5 3 4 1.7 1.5 3 3.3 3 3.9 0 1.4 42.6 44.1 44.1 44.1 0.6 0 2.8 1.8 4.9 4 2.1 2.2 4.4 4 5 4 0.7 0 2.5 1.4 4 3 1.5 1.7 3.3 3 4 3 0.7 0 2.5 1.4 4 3 1.5 1.7 3.3 3 3.9 3 0.6 0 2.5 1.4 4.3 3 1.7 1.7 3.5 3 4 3 0.4 0 3 0.9 5.6 2.1 13.1 5.8 14 7 9.1 11.2 -1.8 1.5 -4 2.7 -4.9 2.7 -0.9 0 -2 0.4 -2.5 0.8 -1 0.9 -6.7 1.9 -22.2 4.2 -8 1.1 -8.8 1.2 -9.4 0.6z"/>
  <path d="M636 972.3 c-8.8 -2 -14.7 -4.2 -16.4 -5.9 -0.8 -0.8 -2.1 -1.4 -2.8 -1.4 -0.8 0 -2 -0.9 -2.8 -2 -0.8 -1.1 -2 -2 -2.7 -2 -1.6 0 -12.3 -10.5 -12.3 -12.1 0 -0.6 -1.3 -2.4 -3 -3.9 -1.6 -1.5 -3 -3.3 -3 -3.9 0 -0.7 -0.9 -2.1 -2 -3.3 -1.1 -1.2 -2 -2.8 -2 -3.5 0 -0.7 -0.4 -1.3 -1 -1.3 -0.5 0 -1 -0.9 -1 -2 0 -1.1 -0.4 -2 -1 -2 -0.5 0 -1 -0.9 -1 -1.9 0 -1.1 -0.4 -2.3 -1 -2.6 -0.5 -0.3 -1 -1.5 -1 -2.6 0 -1 -0.4 -2.7 -0.9 -3.7 -1.6 -3.3 -3.1 -8.9 -3.1 -12 0 -1.7 -0.4 -3.4 -1 -3.7 -0.6 -0.4 -1 -6.8 -1 -15.8 0 -11.8 0.6 -18.4 2.6 -29.7 1.4 -8 2.8 -16.4 3.1 -18.8 0.3 -2.3 1 -4.5 1.4 -4.8 0.5 -0.3 0.9 -1.8 0.9 -3.5 0 -1.6 0.5 -2.9 1 -2.9 0.6 0 1 -0.9 1 -2 0 -1.1 0.5 -2 1 -2 0.6 0 1 -1.1 1 -2.4 0 -1.4 0.5 -2.8 1 -3.1 0.6 -0.3 1 -1.3 1 -2.1 0 -1.7 8.4 -10.4 10 -10.4 0.6 0 2.2 -1.1 3.6 -2.5 6.7 -6.7 19.3 -11.4 30.3 -11.5 6.6 0 12.9 3.5 20.7 11.7 6 6.2 6.9 8.9 5.9 17.8 -0.7 7.2 -2.6 9.6 -9 11.8 -5.1 1.8 -7.7 5.6 -10.4 15.5 -2.4 8.8 -2.8 25.2 -1.1 40 1.4 12.2 6.7 20.8 18.3 29.6 7.7 5.8 18.4 2.7 29.1 -8.4 7.5 -7.8 7 -5.3 6.7 -30.5 -0.3 -19.9 -3 -41.5 -5.3 -41.5 -0.4 0 -0.8 -0.7 -0.8 -1.6 0 -0.8 -0.7 -2.2 -1.5 -3 -0.8 -0.9 -1.8 -2.7 -2.2 -4.2 -0.3 -1.5 -3.4 -5.4 -6.8 -8.7 -9.4 -9.1 -10 -10.6 -10 -26 0 -7.1 0.3 -14.2 0.8 -15.8 0.4 -1.5 2.6 -4.5 4.8 -6.6 3.3 -3.1 5.1 -4 9.1 -4.4 5.7 -0.7 13.8 0.1 13.8 1.4 0 0.5 1.4 0.9 3 0.9 1.7 0 3 0.5 3 1 0 0.6 0.9 1 1.9 1 2.1 0 9.3 3.8 9.9 5.2 0.2 0.4 0.9 0.8 1.6 0.8 1.7 0 12.6 10.4 12.6 12 0 0.6 2.2 3.2 4.8 5.8 6.5 6.5 17.4 25.9 20.2 36.2 0.7 2.5 1.7 5.6 2.4 6.9 1.7 3.6 1.5 53.1 -0.2 59.6 -0.8 2.8 -1.9 6.9 -2.5 9.3 -0.6 2.3 -1.5 4.2 -1.9 4.2 -0.4 0 -0.8 1.4 -0.8 3 0 1.7 -0.4 3 -1 3 -0.5 0 -1 0.9 -1 2 0 1.1 -0.4 2 -1 2 -0.5 0 -1 0.9 -1 2 0 2.4 -3.6 8.9 -6.1 11.1 -1.1 0.9 -1.9 2.2 -1.9 2.8 0 1.6 -20.9 22.1 -22.4 22.1 -0.7 0 -1.8 0.9 -2.6 2 -0.8 1.1 -2.1 2 -3 2 -0.9 0 -2.2 0.9 -3 2 -0.8 1.1 -2.2 2 -3.2 2 -1 0 -1.8 0.4 -1.8 0.9 0 4.1 -53.3 7.6 -67 4.4z"/>
  <path d="M434.5 925.8 c-1.6 -0.6 -3.7 -1.9 -4.6 -3 -0.9 -1 -2.2 -1.8 -2.9 -1.8 -0.6 0 -3.6 -2.5 -6.6 -5.6 -5.8 -6.1 -6.1 -6.9 -5.5 -18.7 0.2 -4.6 1.2 -7.7 4.8 -14.5 2.5 -4.8 5 -9.4 5.6 -10.2 0.7 -0.8 1.9 -2.6 2.6 -4 0.8 -1.4 3.7 -6.3 6.4 -11 2.8 -4.7 6.1 -10.5 7.5 -13 1.3 -2.5 3.1 -5.2 3.8 -6.1 0.8 -0.8 1.4 -1.9 1.4 -2.3 0 -0.5 2.3 -4.2 5 -8.3 2.8 -4.1 5 -7.8 5 -8.2 0 -0.5 1.4 -2.2 3 -3.9 1.7 -1.8 3 -3.6 3 -4 0 -0.5 1.4 -2.3 3 -4 1.7 -1.8 3 -3.6 3 -4.1 0 -0.5 2.3 -3.2 5 -6 2.8 -2.8 5 -5.5 5 -6 0 -0.5 1.8 -2.7 4 -5 2.2 -2.2 4 -4.5 4 -5 0 -0.4 1.4 -2.2 3 -3.9 1.7 -1.8 3 -3.5 3 -3.9 0 -0.5 1.7 -2.6 3.8 -4.8 2 -2.2 4.3 -5.3 5.1 -6.8 0.8 -1.5 1.8 -2.7 2.3 -2.7 0.4 0 0.8 -0.9 0.8 -2 0 -1.1 0.5 -2 1 -2 0.6 0 1 -0.6 1 -1.3 0 -0.7 0.9 -2.3 2 -3.5 1.1 -1.2 2 -2.8 2 -3.7 0 -0.8 0.5 -1.5 1 -1.5 0.6 0 1 -0.8 1 -1.8 0 -1 0.9 -2.4 2 -3.2 1.1 -0.8 2 -2.1 2 -3 0 -0.9 0.9 -2.2 2 -3 1.1 -0.8 2 -2.1 2 -3 0 -0.9 0.9 -2.2 2 -3 1.1 -0.8 2 -2.1 2 -2.8 0 -0.8 1.4 -2.7 3 -4.2 1.7 -1.5 3 -3.3 3 -4 0 -0.6 1.8 -2.9 4 -5 2.2 -2.1 4 -4.4 4 -5 0 -0.6 1.8 -2.9 4 -5 2.2 -2.1 4 -4.4 4 -5 0 -0.6 1.8 -2.9 4 -5 2.2 -2.1 4 -4.4 4 -5 0 -0.6 2.7 -3.8 6 -7 3.3 -3.2 6 -6.5 6 -7.2 0 -0.8 0.9 -2 2 -2.8 1.1 -0.8 2 -2 2 -2.8 0 -0.7 4.5 -5.7 10 -11.2 5.5 -5.5 10 -10.3 10 -10.8 0 -1.4 26.8 -28.2 28.3 -28.2 0.7 0 1.9 -0.9 2.7 -2 0.8 -1.1 2.2 -2 3.2 -2 1 0 1.8 -0.4 1.8 -1 0 -0.5 0.6 -1 1.4 -1 0.8 0 4 -1.3 7.1 -3 3.1 -1.6 6.5 -3 7.4 -3 0.9 0 2.1 -0.4 2.7 -0.8 2.2 -1.9 11.6 -3.4 17.5 -2.7 5.6 0.7 6.5 1.1 11.5 6.1 5.8 5.8 6.8 9.4 4.1 14.1 -2.4 4.3 -18.1 26.8 -18.9 27.1 -0.4 0.2 -0.8 0.9 -0.8 1.6 0 0.7 -0.8 2.1 -1.7 3.2 -1 1 -2.4 3.1 -3.2 4.7 -0.8 1.5 -1.8 2.7 -2.3 2.7 -0.4 0 -0.8 0.6 -0.8 1.4 0 0.7 -1.3 2.7 -3 4.4 -1.6 1.8 -3 3.8 -3 4.5 0 0.7 -0.9 1.9 -2 2.7 -1.1 0.8 -2 2.1 -2 3 0 0.9 -0.9 2.2 -2 3 -1.1 0.8 -2 2.1 -2 3 0 0.9 -0.9 2.2 -2 3 -1.1 0.8 -2 2.1 -2 3 0 0.9 -0.9 2.2 -2 3 -1.1 0.8 -2 2.1 -2 3 0 0.9 -0.9 2.2 -2 3 -1.1 0.8 -2 2.1 -2 3 0 0.9 -0.9 2.2 -2 3 -1.1 0.8 -2 2.1 -2 2.8 0 0.8 -1.3 2.7 -3 4.2 -1.6 1.5 -3 3.3 -3 4 0 0.7 -1.3 2.4 -2.8 3.8 -1.6 1.5 -3.1 3.2 -3.3 3.9 -0.2 0.6 -3.8 4.7 -7.9 9 -4.1 4.3 -11.5 12.2 -16.4 17.6 -4.9 5.3 -9.2 9.7 -9.7 9.7 -1.4 0 -19.9 18.8 -19.9 20.3 0 0.7 -0.9 1.9 -2 2.7 -1.1 0.8 -2 2.2 -2 3.2 0 1 -0.4 1.8 -1 1.8 -0.5 0 -1 0.9 -1 2 0 1.1 -0.4 2 -1 2 -0.5 0 -1 0.9 -1 2 0 1.1 -0.4 2 -1 2 -0.5 0 -1 0.6 -1 1.3 0 0.7 -0.9 2.3 -2 3.5 -1.1 1.2 -2 2.8 -2 3.7 0 0.8 -0.4 1.5 -1 1.5 -0.5 0 -1 0.9 -1 2 0 1.1 -0.4 2 -1 2 -0.5 0 -1 0.6 -1 1.3 0 0.7 -0.9 2.3 -2 3.5 -1.1 1.2 -2 2.5 -2 3 0 0.5 -1.2 2.2 -2.7 3.8 -1.6 1.6 -3.9 5 -5.2 7.4 -1.4 2.5 -2.7 4.7 -3 5 -0.4 0.3 -2.2 3.5 -4 7.3 -1.9 3.7 -3.8 6.7 -4.2 6.7 -0.5 0 -0.9 0.9 -0.9 2 0 1.1 -0.4 2 -1 2 -0.5 0 -1 0.8 -1 1.8 0 1 -0.9 2.4 -2 3.2 -1.1 0.8 -2 2.1 -2 3 0 0.9 -0.9 2.2 -2 3 -1.1 0.8 -2 2.1 -2 2.8 0 0.8 -1.3 2.7 -3 4.2 -1.6 1.5 -3 3.4 -3 4.2 0 0.7 -0.9 2 -2 2.8 -1.1 0.8 -2 2.1 -2 2.8 0 0.7 -1.8 3.1 -4 5.2 -2.2 2.1 -4 4.3 -4 4.9 0 1.5 -32.3 33.7 -36.2 36.1 -3.6 2.2 -9.5 2.5 -14.3 0.8z"/>
  <path d="M407.5 756 c-0.3 -0.5 -1.7 -1 -3 -1 -1.3 0 -2.7 -0.4 -3 -1 -0.3 -0.5 -1.3 -1 -2.1 -1 -0.8 0 -3.3 -0.9 -5.7 -1.9 -2.3 -1.1 -5.2 -2.2 -6.4 -2.6 -1.3 -0.3 -2.9 -1.2 -3.5 -1.9 -0.7 -0.6 -3 -2 -5 -2.9 -4.8 -2.2 -23.6 -21.1 -26.3 -26.3 -1.1 -2.1 -2.8 -4.8 -3.7 -5.8 -1 -1.1 -1.8 -2.6 -1.8 -3.3 0 -0.7 -0.4 -1.3 -1 -1.3 -0.5 0 -1 -1.3 -1 -3 0 -1.6 -0.4 -3 -1 -3 -0.5 0 -1 -1.3 -1 -3 0 -1.6 -0.4 -3 -1 -3 -0.5 0 -1 -1.3 -1 -3 0 -1.6 -0.4 -3 -0.8 -3 -1.4 0 -3.2 -18.9 -3.2 -33.3 0 -16.6 4.3 -45.4 7.3 -48.3 0.4 -0.4 0.7 -1.5 0.7 -2.5 0 -2.1 4.1 -9.9 5.2 -9.9 0.4 0 0.8 -0.7 0.8 -1.5 0 -2 12.5 -14.5 14.5 -14.5 0.8 0 1.5 -0.4 1.5 -0.9 0 -0.5 3.8 -2.7 8.4 -5 8 -3.9 8.9 -4.1 17.5 -4.1 l9.1 0 7.5 7.5 c8.2 8.2 9.5 10.5 9.5 16.8 0 7 -1.7 10.9 -6.1 14.2 -6.7 5 -11.3 9.8 -13.7 14.2 -2.2 4.1 -2.3 4.9 -2 26.5 l0.3 22.3 5.5 10 c5.1 9.1 6 10.2 11.9 13.9 8.2 5.1 14.6 5.9 21.2 2.6 2.4 -1.3 4.6 -2.5 4.9 -2.9 0.3 -0.3 2.1 -1.7 4.1 -3 2.3 -1.6 4.5 -4.4 6.1 -8 4.9 -10.4 5 -11.7 3.9 -38.6 -1.3 -31.4 -1.4 -32 -6.2 -36.6 -2.2 -2.1 -3.9 -4.3 -3.9 -4.9 0 -0.7 -1.3 -2.5 -3 -4 -1.6 -1.5 -3 -3.4 -3 -4.2 0 -0.7 -0.9 -2 -2 -2.8 -1.2 -0.8 -2 -2.6 -2 -4.2 0 -1.5 -0.4 -2.8 -1 -2.8 -0.5 0 -1 -0.9 -1 -2 0 -1.1 -0.4 -2 -1 -2 -0.5 0 -1 -0.9 -1 -2 0 -1.1 -0.4 -2 -1 -2 -0.5 0 -1 -1.8 -1 -4 0 -2.2 -0.4 -4 -1 -4 -0.5 0 -1 -2.2 -1 -5 0 -2.7 0.5 -5 1 -5 0.6 0 1 -0.9 1 -2 0 -1.1 0.5 -2 1 -2 0.6 0 1 -0.6 1 -1.3 0 -1.6 5.2 -6.7 6.8 -6.7 0.7 0 1.2 -0.4 1.2 -0.8 0 -0.4 2.1 -1.4 4.6 -2.1 3.7 -1.1 5.3 -1.1 8.7 -0.1 8.3 2.5 18.7 7 18.7 8.2 0 0.4 0.9 0.8 2 0.8 1.1 0 2 0.5 2 1 0 0.6 0.6 1 1.4 1 1.9 0 26.6 24.6 26.6 26.5 0 0.8 0.4 1.5 0.8 1.5 1 0 5.2 8.5 5.2 10.5 0 0.8 0.5 1.5 1 1.5 0.6 0 1 0.8 1 1.8 0 1 0.3 2.2 0.7 2.6 1 1 3.2 9.6 3.3 12.9 0 1.5 0.4 2.7 0.9 2.7 1.6 0 2.4 31.6 1.1 44 -2.1 19.7 -2.2 20.5 -3.1 21.4 -0.5 0.6 -0.9 2.3 -0.9 3.8 0 1.5 -0.4 2.8 -1 2.8 -0.5 0 -1 1.8 -1 4 0 2.2 -0.4 4 -1 4 -0.5 0 -1 0.9 -1 1.9 0 2.3 -4 10.1 -5.2 10.1 -0.4 0 -0.8 0.8 -0.8 1.8 0 1 -0.9 2.4 -2 3.2 -1.1 0.8 -2 2.1 -2 2.8 0 1.6 -16.8 18.2 -18.5 18.2 -0.6 0 -1.7 0.9 -2.5 2 -0.8 1.1 -2 2 -2.7 2 -0.7 0 -2.7 1.4 -4.5 3 -1.7 1.7 -3.5 3 -4 3 -0.5 0 -1.8 0.9 -3 2 -1.2 1.1 -2.8 2 -3.5 2 -0.7 0 -1.3 0.5 -1.3 1 0 0.6 -0.9 1 -2 1 -1.1 0 -2 0.5 -2 1 0 0.6 -0.9 1 -2 1 -1.1 0 -2 0.5 -2 1 0 0.6 -0.9 1 -1.9 1 -1.1 0 -2.3 0.5 -2.6 1 -0.3 0.6 -2.2 1 -4.1 1 -1.9 0 -3.4 0.5 -3.4 1 0 0.6 -5.8 1 -15.4 1 -9.3 0 -15.7 -0.4 -16.1 -1z"/>
  <path d="M916.8 326.6 c-3.2 -1.7 -9.1 -7.4 -10.8 -10.5 -0.9 -1.8 -0.9 -3.2 0.1 -6.7 0.8 -2.4 1.7 -4.4 2.1 -4.4 0.4 0 0.8 -0.9 0.8 -2 0 -1.1 0.5 -2 1 -2 0.6 0 1 -0.9 1 -2 0 -1.1 0.5 -2 1 -2 0.6 0 1 -0.5 1 -1.1 0 -0.6 1.4 -3.1 3 -5.6 1.7 -2.4 3 -5.3 3 -6.3 0 -1 0.5 -2.2 1 -2.5 0.6 -0.3 1 -1.6 1 -2.9 0 -1.2 0.4 -2.6 0.8 -3.2 0.5 -0.5 1.4 -2.9 2.1 -5.4 0.8 -2.5 1.7 -5.8 2.2 -7.4 0.5 -1.6 0.9 -4.2 0.9 -5.7 0 -1.5 0.4 -3 0.9 -3.3 2.5 -1.6 3.5 -40.1 1.3 -54.1 -0.7 -4.4 -1.5 -9.8 -1.8 -12 -0.4 -2.2 -1 -4.4 -1.5 -5 -0.5 -0.5 -0.9 -2 -0.9 -3.2 0 -6.3 -7 -23.5 -16.1 -39.8 -1.9 -3.3 -4.1 -7.3 -4.9 -9 -0.8 -1.6 -2.3 -3.9 -3.2 -4.9 -1 -1.1 -1.8 -2.6 -1.8 -3.3 0 -0.7 -0.4 -1.3 -0.8 -1.3 -0.5 0 -1.5 -1.2 -2.3 -2.7 -0.8 -1.6 -2.2 -3.7 -3.1 -4.7 -1 -1.1 -1.8 -2.4 -1.8 -2.9 0 -1.4 -34.8 -35.7 -36.2 -35.7 -0.8 0 -2 -0.9 -2.8 -2 -0.8 -1.1 -2.1 -2 -2.9 -2 -0.7 0 -2.1 -0.9 -3.1 -2 -2.5 -2.9 -11.7 -5 -27 -6.1 -23.2 -1.8 -46.7 0.7 -61.5 6.7 -13.2 5.2 -14.5 5.8 -14.5 6.6 0 0.5 -0.9 0.8 -2 0.8 -1.1 0 -2 0.4 -2 0.8 0 0.5 -2.1 2 -4.7 3.3 -2.7 1.3 -5.7 3.2 -6.7 4.1 -1.1 1 -2.4 1.8 -2.9 1.8 -0.5 0 -2.2 1.4 -3.7 3 -1.5 1.7 -3.3 3 -3.9 3 -1.4 0 -22.1 20.6 -22.1 22.1 0 0.5 -2.2 3.2 -5 5.9 -2.7 2.7 -5 5.3 -5 5.7 0 0.5 -0.8 1.8 -1.7 2.9 -1 1 -2.9 3.6 -4.3 5.6 -1.4 2.1 -2.8 3.8 -3.2 3.8 -0.5 0 -0.8 0.6 -0.8 1.3 0 0.7 -0.8 2.2 -1.8 3.3 -2.4 2.7 -12.2 22.2 -12.2 24.4 0 1 -0.4 2.2 -1 2.5 -0.5 0.3 -1 1.3 -1 2.1 0 0.8 -0.9 3.4 -2 5.6 -1.1 2.3 -2 4.8 -2 5.5 0 0.7 -0.4 1.3 -1 1.3 -0.5 0 -1 0.7 -1 1.5 0 0.9 -0.9 3.5 -2 5.7 -1.1 2.3 -2 5.2 -2 6.5 0 1.3 -0.4 2.3 -1 2.3 -0.5 0 -1 0.6 -1 1.4 0 1.8 -6.8 8.6 -8.6 8.6 -0.8 0 -1.4 0.5 -1.4 1 0 0.6 -0.9 1 -2 1 -1.1 0 -2 0.5 -2 1 0 0.6 -0.9 1 -1.9 1 -1.1 0 -2.3 0.5 -2.6 1 -0.8 1.4 -8.1 1.3 -10.8 -0.2 -3.8 -2 -8.7 -8.1 -9.9 -12.3 -0.7 -2.2 -1.7 -4.3 -2.3 -4.7 -1.6 -1.2 -1.1 -26.2 0.8 -33.8 4.4 -17.8 12.9 -43.4 17.6 -53 2.9 -5.8 5.6 -10.7 6.2 -10.8 0.5 -0.2 0.9 -1.2 0.9 -2.2 0 -1 0.3 -2 0.8 -2.2 0.4 -0.1 1.8 -2.4 3.1 -5.1 1.3 -2.6 2.8 -4.7 3.3 -4.7 0.4 0 0.8 -0.6 0.8 -1.4 0 -0.7 1.4 -2.7 3 -4.4 1.7 -1.8 3 -3.8 3 -4.5 0 -0.7 0.9 -1.9 2 -2.7 1.1 -0.8 2 -2 2 -2.8 0 -1.5 26.6 -28.2 28.2 -28.2 0.6 0 1.8 -0.8 2.7 -1.8 3.6 -4 23.9 -18.2 26 -18.2 0.6 0 1.1 -0.4 1.1 -1 0 -0.5 0.9 -1 2 -1 1.1 0 2 -0.4 2 -1 0 -0.5 0.9 -1 2 -1 1.1 0 2 -0.4 2 -1 0 -0.5 0.9 -1 2 -1 1.1 0 2 -0.4 2 -1 0 -0.5 0.9 -1 1.9 -1 1.1 0 2.3 -0.4 2.6 -1 0.3 -0.5 1.5 -1 2.6 -1 1 0 2.7 -0.4 3.7 -0.9 0.9 -0.5 5.1 -1.9 9.2 -3 4.1 -1.2 8.9 -2.6 10.6 -3.1 1.7 -0.6 3.9 -1 5 -1 1.1 0 2.4 -0.4 3 -0.9 0.5 -0.5 9.2 -1.4 19.4 -1.9 14.7 -0.8 21.5 -0.8 33 0.4 8 0.7 18.2 1.7 22.8 2 4.5 0.4 8.2 1.1 8.2 1.5 0 0.5 1.4 0.9 3 0.9 1.7 0 3 0.5 3 1 0 0.6 1.4 1 3 1 1.7 0 3 0.5 3 1 0 0.6 1.4 1 3 1 1.7 0 3 0.5 3 1 0 0.6 1.4 1 3 1 1.7 0 3 0.5 3 1 0 0.6 1.4 1 3 1 1.7 0 3 0.5 3 1 0 0.6 0.9 1 2 1 1.1 0 2 0.5 2 1 0 0.6 0.9 1 2 1 1.1 0 2 0.5 2 1 0 0.6 0.9 1 2 1 1.1 0 2 0.5 2 1 0 0.6 0.9 1 2 1 1.1 0 2 0.5 2 1 0 0.6 0.7 1 1.6 1 0.9 0 2.4 0.8 3.3 1.8 0.9 0.9 2.8 2.3 4.4 3.1 1.5 0.8 2.7 1.8 2.7 2.3 0 0.4 0.6 0.8 1.3 0.8 0.6 0 3.1 1.8 5.5 4 2.3 2.2 4.6 4 5.2 4 1.3 0 26 24.8 26 26.1 0 0.6 1.8 2.8 4 4.9 2.2 2.1 4 4.5 4 5.2 0 0.7 0.9 2 2 2.8 1.1 0.8 2 2.1 2 3 0 0.9 0.9 2.2 2 3 1.1 0.8 2 2.1 2 3 0 0.9 0.9 2.2 2 3 1.1 0.8 2 2 2 2.8 0 0.7 0.9 2.2 2 3.4 1.1 1.2 2 2.8 2 3.5 0 0.7 0.5 1.3 1 1.3 0.6 0 1 0.9 1 2 0 1.1 0.5 2 1 2 0.6 0 1 0.9 1 2 0 1.1 0.5 2 1 2 0.6 0 1 0.6 1 1.3 0 0.7 0.9 3.2 2 5.5 1.1 2.2 2 4.8 2 5.6 0 0.8 0.5 1.8 1 2.1 0.6 0.3 1 1.7 1 3.1 0 1.3 0.5 2.4 1 2.4 0.6 0 1 0.9 1 1.9 0 1.1 0.5 2.3 1 2.6 0.6 0.3 1 1.7 1 3 0 1.3 0.5 2.7 1 3 0.6 0.3 1 2.1 1 4 0 1.9 0.5 3.7 1 4 0.6 0.3 1 2.1 1 4 0 1.9 0.4 3.6 0.9 3.9 0.5 0.3 1.1 2.3 1.4 4.3 2.4 15.8 3.6 26.7 3.6 31.8 0.1 3.3 0.5 7.4 1 9.1 1.3 4.7 -2 40.1 -4.8 50.9 -0.5 2.2 -1.3 5.2 -1.7 6.8 -0.3 1.5 -1 2.7 -1.5 2.7 -0.5 0 -0.9 1.1 -0.9 2.4 0 1.4 -0.4 2.8 -1 3.1 -0.5 0.3 -1 1.5 -1 2.6 0 1 -0.4 1.9 -1 1.9 -0.5 0 -1 0.9 -1 2 0 1.1 -0.4 2 -1 2 -0.5 0 -1 0.9 -1 2 0 1.1 -0.4 2 -1 2 -0.5 0 -1 0.8 -1 1.8 0 1 -0.9 2.4 -2 3.2 -1.1 0.8 -2 2.1 -2 3 0 0.9 -0.9 2.2 -2 3 -1.1 0.8 -2 2 -2 2.7 0 1.7 -20.6 22.3 -22.3 22.3 -0.7 0 -1.9 0.9 -2.7 2 -0.8 1.1 -2.2 2 -3.2 2 -1 0 -1.8 0.5 -1.8 1 0 0.6 -0.9 1 -2 1 -1.1 0 -2 0.5 -2 1 0 0.6 -0.8 1 -1.8 1 -1 0 -2.2 0.4 -2.7 0.9 -2 1.8 -5.1 2 -7.7 0.7z"/>
 </g>
</svg>